HIERARCHY
ROOT mixamorig:Hips
{
  OFFSET 0.000000 0.000000 0.000000
  CHANNELS 6 Xposition Yposition Zposition Xrotation Yrotation Zrotation
  JOINT mixamorig:Spine
  {
    OFFSET 1.277922 23.685776 -1.473739
    CHANNELS 3 Xrotation Yrotation Zrotation
    JOINT mixamorig:Spine2
    {
      OFFSET 1.277922 23.685776 -1.473739
      CHANNELS 3 Xrotation Yrotation Zrotation
      JOINT mixamorig:Neck
      {
        OFFSET 0.000000 4.227248 0.000000
        CHANNELS 3 Xrotation Yrotation Zrotation
        JOINT mixamorig:Head
        {
          OFFSET 0.000000 3.735021 0.000000
          CHANNELS 3 Xrotation Yrotation Zrotation
          End Site
          {
            OFFSET 0.000000 1.120506 0.000000
          }
        }
      }
      JOINT mixamorig:LeftShoulder
      {
        OFFSET 15.589172 3.940868 -1.613959
        CHANNELS 3 Xrotation Yrotation Zrotation
        JOINT mixamorig:LeftArm
        {
          OFFSET 1.009262 -19.267075 -10.059340
          CHANNELS 3 Xrotation Yrotation Zrotation
          JOINT mixamorig:LeftForeArm
          {
            OFFSET -7.551586 9.126048 -14.273645
            CHANNELS 3 Xrotation Yrotation Zrotation
            JOINT mixamorig:LeftHand
            {
              OFFSET -2.601524 3.809930 -1.584078
              CHANNELS 3 Xrotation Yrotation Zrotation
              End Site
              {
                OFFSET -0.780457 1.142979 -0.475223
              }
            }
          }
        }
      }
      JOINT mixamorig:RightShoulder
      {
        OFFSET -15.589172 3.940868 1.613959
        CHANNELS 3 Xrotation Yrotation Zrotation
        JOINT mixamorig:RightArm
        {
          OFFSET 0.369772 -24.896812 -13.866074
          CHANNELS 3 Xrotation Yrotation Zrotation
          JOINT mixamorig:RightForeArm
          {
            OFFSET 7.064691 11.192793 -19.148022
            CHANNELS 3 Xrotation Yrotation Zrotation
            JOINT mixamorig:RightHand
            {
              OFFSET 3.786626 5.224959 -4.202100
              CHANNELS 3 Xrotation Yrotation Zrotation
              End Site
              {
                OFFSET 1.135988 1.567488 -1.260630
              }
            }
          }
        }
      }
    }
  }
  JOINT mixamorig:LeftUpLeg
  {
    OFFSET 9.460444 -0.159481 1.370640
    CHANNELS 3 Xrotation Yrotation Zrotation
    JOINT mixamorig:LeftLeg
    {
      OFFSET 11.476000 -40.598035 -6.922701
      CHANNELS 3 Xrotation Yrotation Zrotation
      JOINT mixamorig:LeftFoot
      {
        OFFSET 10.790807 -36.194235 11.674022
        CHANNELS 3 Xrotation Yrotation Zrotation
        JOINT mixamorig:LeftToeBase
        {
          OFFSET -0.217554 -6.343681 -6.642804
          CHANNELS 3 Xrotation Yrotation Zrotation
          End Site
          {
            OFFSET -0.065266 -1.903104 -1.992841
          }
        }
      }
    }
  }
  JOINT mixamorig:RightUpLeg
  {
    OFFSET -9.460444 0.159481 -1.370640
    CHANNELS 3 Xrotation Yrotation Zrotation
    JOINT mixamorig:RightLeg
    {
      OFFSET -1.472079 -34.936613 11.400775
      CHANNELS 3 Xrotation Yrotation Zrotation
      JOINT mixamorig:RightFoot
      {
        OFFSET -9.570470 -38.467240 26.014859
        CHANNELS 3 Xrotation Yrotation Zrotation
        JOINT mixamorig:RightToeBase
        {
          OFFSET -7.756088 -3.724676 -6.009160
          CHANNELS 3 Xrotation Yrotation Zrotation
          End Site
          {
            OFFSET -2.326826 -1.117403 -1.802748
          }
        }
      }
    }
  }
}
MOTION
Frames: 16
Frame Time: 0.083333
0.094380 0.150834 0.145625 1.148959 -0.051734 0.242188 -0.000000 0.000000 0.000000 -3.230657 6.105554 -0.021023 23.379426 1.187145 -3.361554 23.259294 2.615448 -3.165128 1.797460 -5.418129 -1.277260 1.710946 -1.524847 -0.082203 0.032438 1.131342 -0.740806 0.000000 0.000000 0.000000 2.296126 -6.145291 0.204906 0.490397 -0.157587 -0.081565 0.079733 0.044242 0.333865 0.000000 0.000000 0.000000 -1.467570 0.074800 -0.851120 -1.659065 -0.767434 0.282900 -3.696238 0.221348 1.150250 0.000000 0.000000 0.000000 0.846872 -0.136657 -0.583745 -2.471214 -0.136232 -0.237019 1.075021 1.388948 -0.911916 0.000000 0.000000 0.000000
0.094386 0.150602 0.146551 0.963882 -0.042585 0.220511 -0.000000 0.000000 0.000000 -3.232301 6.074550 0.018943 23.476187 1.131392 -3.367398 23.360143 2.563747 -3.193900 2.041802 -5.429732 -1.201759 1.611030 -1.441124 -0.098908 -0.138739 0.989031 -0.609623 0.000000 0.000000 0.000000 2.472576 -6.146671 0.241511 0.371641 -0.016230 -0.094815 0.087314 -0.022461 0.268353 0.000000 0.000000 0.000000 -1.217104 0.083177 -0.830485 -1.382449 -0.693415 0.250670 -2.939999 0.128066 1.120747 0.000000 0.000000 0.000000 0.743301 -0.143764 -0.598325 -2.151048 -0.168758 -0.226247 1.077808 1.389882 -0.926094 0.000000 0.000000 0.000000
0.094528 0.150266 0.148853 2.278424 -0.099008 0.562728 -0.000000 0.000000 0.000000 -3.218302 6.338738 -0.451573 22.830427 1.088705 -3.209867 22.723383 2.416555 -3.035850 0.719557 -4.603270 -3.137379 4.214438 -3.818946 -0.427015 -0.958440 2.390718 -1.332625 0.000000 0.000000 0.000000 1.636324 -6.695109 0.942533 0.688957 0.493815 -0.384883 0.219779 -0.248346 0.611220 0.000000 0.000000 0.000000 -2.837134 0.264958 -2.343756 -3.197786 -1.828848 0.569958 -6.350812 0.091831 3.287332 0.000000 0.000000 0.000000 1.926551 -0.453520 -1.829052 -5.378142 -0.597123 -0.568024 3.003079 3.906180 -2.483128 0.000000 0.000000 0.000000
0.094851 0.150414 0.151294 2.446807 -0.104529 0.670697 0.000000 0.000000 0.000000 -3.213216 6.434336 -0.576557 22.790450 0.538292 -3.146326 22.724906 1.798034 -3.180792 1.976785 -4.286496 -3.521649 4.806260 -4.685260 -1.317911 -2.696659 2.494233 -0.971692 0.000000 0.000000 0.000000 2.251201 -7.473853 2.240594 0.162395 2.165835 -0.950422 0.127653 -0.755421 0.624974 0.000000 0.000000 0.000000 -2.970352 0.457878 -3.476757 -3.156022 -2.503120 0.402240 -5.155023 -0.517304 5.476308 0.000000 0.000000 0.000000 2.662617 -0.819340 -3.161752 -6.542309 -1.183708 -0.518629 4.066250 5.319970 -2.836990 0.000000 0.000000 0.000000
0.095329 0.150904 0.153762 2.922830 -0.132758 0.675592 0.000000 0.000000 -0.000000 -3.214992 6.404687 -0.631044 22.583365 0.203720 -3.181379 22.538307 1.440013 -3.346424 4.436573 -4.759030 -1.812907 2.859205 -3.880266 -3.168550 -3.513438 2.260501 -0.472212 0.000000 0.000000 0.000000 3.081475 -8.237421 3.773504 -0.192378 3.703000 -1.613296 -0.384250 -0.913198 0.836155 0.000000 0.000000 0.000000 -3.633106 0.569952 -4.282116 -3.376220 -3.244507 -0.010615 -5.444837 -0.974222 7.865990 0.000000 0.000000 0.000000 3.885308 -1.181847 -4.474159 -8.047439 -1.559479 0.142953 3.914862 4.875716 -1.560739 0.000000 0.000000 0.000000
0.095797 0.151486 0.154230 2.669891 -0.117911 0.669818 0.000000 0.000000 -0.000000 -3.260478 5.566805 -0.618437 22.705248 0.966772 -3.276942 22.598283 2.306482 -3.149174 6.988245 -5.281450 0.987246 -0.389718 -2.487272 -5.296009 -3.247144 2.074529 -0.136545 0.000000 0.000000 0.000000 4.295289 -7.758134 4.364116 -0.313606 4.245565 -1.749858 -0.844794 -0.951554 0.843417 0.000000 0.000000 0.000000 -3.442635 0.635187 -4.892853 -2.870784 -3.411354 0.025435 -4.647095 -1.509185 9.000008 0.000000 0.000000 0.000000 5.031601 -1.466038 -5.453910 -8.743414 -1.552099 1.152042 4.137133 4.255389 -1.583184 0.000000 0.000000 0.000000
0.096232 0.151794 0.153129 1.311860 -0.038590 0.636941 0.000000 0.000000 -0.000000 -3.332697 4.232420 -0.527910 23.390997 2.200605 -3.284121 23.167475 3.684906 -2.657348 8.966863 -4.695610 2.050194 -2.114876 -2.272408 -6.115526 -2.463529 2.343485 -0.630545 0.000000 0.000000 0.000000 6.212365 -6.643350 4.526651 -0.277510 4.114342 -1.896112 -1.374738 -0.528696 0.944432 0.000000 0.000000 0.000000 -2.031118 0.574903 -4.974188 -1.410247 -2.748965 0.327573 -4.348959 -1.977951 8.463439 0.000000 0.000000 0.000000 6.760454 -1.634530 -5.707583 -9.952479 -0.944621 2.229585 4.266817 4.597818 -2.133459 0.000000 0.000000 0.000000
0.097005 0.151809 0.152102 -1.093917 0.101779 0.594518 0.000000 0.000000 0.000000 -3.397743 3.027590 -0.356133 24.622888 3.019924 -3.027758 24.323654 4.545101 -2.031513 10.854154 -3.225686 1.113689 -1.938114 -3.584517 -5.711847 -2.066028 2.738568 -1.631746 0.000000 0.000000 0.000000 8.255424 -5.528594 4.340922 0.157988 3.698212 -2.001719 -1.578298 -0.239069 0.929706 0.000000 0.000000 0.000000 0.794501 0.492935 -4.666313 1.519335 -1.374658 0.267921 -3.624232 -3.541735 8.121381 0.000000 0.000000 0.000000 8.206353 -1.719756 -5.376249 -9.942624 -0.427424 2.433702 4.242338 5.566879 -2.444162 0.000000 0.000000 0.000000
0.097758 0.151422 0.153428 -1.073860 0.099998 0.586400 0.000000 0.000000 0.000000 -3.352777 3.859938 -0.286668 24.579515 2.404053 -2.079156 24.406406 3.482088 -1.261603 8.670864 -3.345094 -0.360558 1.754319 -4.657162 -5.373823 -2.799279 2.702039 -2.561531 0.000000 0.000000 0.000000 7.004077 -6.347846 4.353516 0.834908 3.384453 -2.418814 -1.032573 -0.244308 1.057565 0.000000 0.000000 0.000000 1.494212 0.611387 -4.069650 2.518093 -0.718418 0.097766 -3.937282 -3.683745 6.966432 0.000000 0.000000 0.000000 6.623637 -1.608415 -5.024838 -8.599704 0.223133 2.810169 3.334122 6.672605 -2.937692 0.000000 0.000000 0.000000
0.098337 0.150717 0.155668 -0.914885 0.105903 0.810642 -0.000000 0.000000 0.000000 -3.301077 4.822294 -0.458498 24.473708 1.828023 -1.360940 24.385985 2.555316 -0.723273 7.244483 -3.880650 -1.274912 2.957588 -5.690320 -4.813497 -2.820099 2.615994 -3.617876 0.000000 0.000000 0.000000 5.574249 -7.451860 4.619261 2.154284 2.953947 -3.052063 -0.691221 -0.133702 1.298586 0.000000 0.000000 0.000000 2.201633 0.645709 -3.131208 1.098339 -0.524664 0.618542 -3.980468 0.905921 0.488886 0.000000 0.000000 0.000000 4.602577 -1.533409 -4.979263 -6.344745 1.029233 3.582490 2.000521 6.870226 -3.373569 0.000000 0.000000 0.000000
0.098557 0.150057 0.157106 -0.333935 0.093666 1.169983 -0.000000 0.000000 0.000000 -3.238193 5.990341 -0.805752 24.148780 1.510969 -1.155137 24.086005 2.117019 -0.634483 6.654986 -4.932613 -1.350856 2.995436 -6.188856 -4.951541 -2.882811 2.199287 -5.040305 0.000000 0.000000 0.000000 4.775118 -8.779339 4.970760 2.891755 3.010219 -3.284893 -0.778034 -0.076335 1.530270 0.000000 0.000000 0.000000 2.527983 0.651116 -2.104460 -0.646947 -0.070046 1.891477 -4.597633 4.324822 -5.930311 0.000000 0.000000 0.000000 2.719530 -1.553416 -5.471379 -4.770698 1.544955 4.323798 0.896513 7.325738 -3.519153 0.000000 0.000000 0.000000
0.098764 0.149400 0.156749 0.584216 0.047169 1.371421 -0.000000 0.000000 0.000000 -3.191910 6.843256 -1.054865 23.685033 1.041100 -1.126781 23.648184 1.581593 -0.803068 6.268311 -5.617809 -1.364190 2.544558 -7.122031 -5.412531 -2.937228 2.407090 -5.847328 0.000000 0.000000 0.000000 3.324678 -9.627696 5.066552 3.809036 2.848990 -3.390713 -1.245384 0.129848 1.460052 0.000000 0.000000 0.000000 2.176538 0.694731 -1.445949 -0.314847 0.765107 2.914259 -5.217901 0.639107 -4.855917 0.000000 0.000000 0.000000 1.749075 -1.700340 -6.357232 -5.996526 1.950453 5.145780 0.184273 10.058085 -3.447985 0.000000 0.000000 0.000000
0.098856 0.148782 0.156639 0.510118 0.071886 1.719929 0.000000 0.000000 0.000000 -3.242456 5.934778 -1.430869 23.785000 1.153066 -1.660396 23.723084 1.918867 -1.335350 6.338656 -5.047092 -0.868945 2.459701 -6.196417 -5.483050 -2.612211 2.786293 -4.553085 0.000000 0.000000 0.000000 3.831918 -8.768889 5.142477 3.625356 2.760593 -3.460582 -1.348262 0.306093 1.593302 0.000000 0.000000 0.000000 2.144523 0.627124 -1.791768 0.473503 0.797295 2.311658 -5.155271 -2.625447 -1.005043 0.000000 0.000000 0.000000 2.353574 -2.136249 -8.003186 -7.866797 1.977093 6.080340 0.426071 12.350942 -3.633977 0.000000 0.000000 0.000000
0.098287 0.149720 0.157262 0.603037 0.090091 2.155222 0.000000 0.000000 -0.000000 -3.309852 4.721788 -1.918196 23.810068 1.387324 -2.536886 23.699914 2.520877 -2.197373 7.508989 -6.347173 3.399965 -0.074810 -0.064723 -6.214490 -0.847032 1.872961 -1.908403 0.000000 0.000000 0.000000 5.045443 -7.600545 5.252707 2.588658 2.472127 -3.628643 -1.360719 0.636308 1.855293 0.000000 0.000000 0.000000 1.992360 0.609566 -2.371502 -0.100844 0.296792 1.382872 -5.862738 -3.834236 1.906668 0.000000 0.000000 0.000000 3.131573 -2.588406 -9.825402 -9.815414 1.454943 6.554426 1.761060 13.751471 -4.127675 0.000000 0.000000 0.000000
0.096635 0.151946 0.158481 0.203577 0.130839 2.314654 -0.000000 0.000000 -0.000000 -3.306525 4.816338 -2.010316 24.087440 0.462901 -3.116358 23.984316 1.754651 -3.236067 12.250340 -12.741752 13.848071 -4.614952 14.316635 -9.057582 1.856172 -1.015187 2.925474 0.000000 0.000000 0.000000 7.483572 -7.137603 4.350565 -0.292752 1.309644 -3.181524 -1.042221 0.849411 1.538323 0.000000 0.000000 0.000000 2.257132 0.583072 -2.897294 -0.639503 -0.375133 0.312139 -10.062162 -6.614168 7.255640 0.000000 0.000000 0.000000 3.979944 -3.019490 -11.231267 -9.909549 1.320096 7.637831 2.059440 13.932550 -4.906145 0.000000 0.000000 0.000000
0.094669 0.153974 0.159172 -2.802064 0.360211 2.399717 -0.000000 0.000000 -0.000000 -3.212270 6.652715 -1.663159 25.772495 -2.569098 -3.047856 25.753494 -1.506651 -4.475848 20.888707 -21.802716 24.948773 -6.944941 29.655599 -12.382686 3.050346 -3.401180 11.513690 0.000000 0.000000 0.000000 11.915252 -7.969744 2.553067 -4.296776 0.206207 -1.934129 -0.110387 0.197458 0.257129 0.000000 0.000000 0.000000 4.940495 0.294945 -3.713397 -1.654331 -1.138700 0.223850 -10.205589 -7.283950 9.780541 0.000000 0.000000 0.000000 7.396327 -3.817800 -12.879057 -8.770581 1.836289 10.038910 0.924706 14.340822 -6.814341 0.000000 0.000000 0.000000
